 <svg  version="1.0" xmlns="http://www.w3.org/2000/svg"  width="501.000000pt" height="311.000000pt" viewBox="0 0 501.000000 311.000000"  preserveAspectRatio="xMidYMid meet">  <g transform="translate(0.000000,311.000000) scale(0.100000,-0.100000)" fill="#000000" stroke="none"> <path d="M0 1715 l0 -1395 2250 0 2250 0 0 1395 0 1395 -2250 0 -2250 0 0 -1395z m3638 48 l-3 -898 -1532 -3 -1533 -2 0 900 0 900 1535 0 1535 0 -2 -897z"/> <path d="M656 2573 c-3 -3 -6 -370 -6 -815 l0 -808 1450 0 1450 0 -2 813 -3 812 -1441 2 c-793 1 -1444 0 -1448 -4z m796 -143 c157 -21 272 -73 383 -174 l70 -63 -78 -84 c-43 -46 -84 -87 -91 -91 -8 -4 -20 11 -36 45 -31 66 -120 156 -191 193 -50 27 -62 29 -159 28 -113 -2 -154 -13 -209 -59 -60 -51 -62 -152 -4 -207 43 -39 77 -53 218 -88 308 -76 462 -153 525 -264 42 -73 54 -140 41 -226 -30 -190 -148 -301 -361 -340 -95 -18 -301 -16 -382 4 -125 29 -243 93 -341 185 l-48 45 88 88 c48 48 90 88 93 88 4 0 14 -17 23 -39 28 -63 128 -156 215 -198 74 -37 80 -38 178 -37 90 0 108 4 158 28 61 30 84 56 96 111 24 107 -52 170 -266 221 -105 24 -293 88 -354 119 -157 80 -226 206 -201 370 18 123 67 207 153 261 119 75 303 107 480 84z m1462 -49 c161 -45 295 -134 379 -253 59 -84 72 -111 98 -204 27 -102 23 -263 -10 -365 -57 -179 -222 -342 -409 -403 -126 -41 -181 -46 -504 -46 l-308 0 0 651 0 651 338 -4 c308 -5 344 -7 416 -27z"/> <path d="M2510 1760 l0 -530 78 0 c192 1 322 78 401 237 48 96 64 169 63 298 0 225 -83 395 -229 473 -71 37 -141 52 -238 52 l-75 0 0 -530z"/> </g> </svg> 